PathFileType	4	(X/Y/Z)	C:\Users\willi\Documents\UniDataLokal\DATA_Hans_PhD\TD06\B\3DGAIT_B_W12\marker_experimental.trc
DataRate	CameraRate	NumFrames	NumMarkers	Units	OrigDataRate	OrigDataStartFrame	OrigNumFrames
100.000000	100.000000	4	86	mm	100.000000	0	99
Frame#	Time	RBAK			C7			CLAV			T10			STRN			RASI			RPSI			LPSI			LASI			LPELV			RPELV			RTHI1			RTHI2			RTHI3			RTHI			RKNE			RPAT			RLKNEL			RLKNEM			RLPAT			RTIB1			RTIB2			RTIB3			RTIB			RANK			RHEEL			RTOE			RM5			LTHI1			LTHI2			LTHI3			LTHI			LKNE			LPAT			LLKNE			LLKNEM			LLPAT			LTIB1			LTIB2			LTIB3			LTIB			LANK			LHEEL			LTOE			LM5			*45			*46			*47			*48			*49			*50			*51			*52			*53			*54			*55			*56			*57			*58			*59			*60			*61			*62			*63			*64			*65			*66			*67			*68			*69			*70			*71			*72			*73			*74			*75			*76			*77			*78			*79			*80			*81			*82			*83			*84			*85			
		X1	Y1	Z1	X2	Y2	Z2	X3	Y3	Z3	X4	Y4	Z4	X5	Y5	Z5	X6	Y6	Z6	X7	Y7	Z7	X8	Y8	Z8	X9	Y9	Z9	X10	Y10	Z10	X11	Y11	Z11	X12	Y12	Z12	X13	Y13	Z13	X14	Y14	Z14	X15	Y15	Z15	X16	Y16	Z16	X17	Y17	Z17	X18	Y18	Z18	X19	Y19	Z19	X20	Y20	Z20	X21	Y21	Z21	X22	Y22	Z22	X23	Y23	Z23	X24	Y24	Z24	X25	Y25	Z25	X26	Y26	Z26	X27	Y27	Z27	X28	Y28	Z28	X29	Y29	Z29	X30	Y30	Z30	X31	Y31	Z31	X32	Y32	Z32	X33	Y33	Z33	X34	Y34	Z34	X35	Y35	Z35	X36	Y36	Z36	X37	Y37	Z37	X38	Y38	Z38	X39	Y39	Z39	X40	Y40	Z40	X41	Y41	Z41	X42	Y42	Z42	X43	Y43	Z43	X44	Y44	Z44	X45	Y45	Z45	X46	Y46	Z46	X47	Y47	Z47	X48	Y48	Z48	X49	Y49	Z49	X50	Y50	Z50	X51	Y51	Z51	X52	Y52	Z52	X53	Y53	Z53	X54	Y54	Z54	X55	Y55	Z55	X56	Y56	Z56	X57	Y57	Z57	X58	Y58	Z58	X59	Y59	Z59	X60	Y60	Z60	X61	Y61	Z61	X62	Y62	Z62	X63	Y63	Z63	X64	Y64	Z64	X65	Y65	Z65	X66	Y66	Z66	X67	Y67	Z67	X68	Y68	Z68	X69	Y69	Z69	X70	Y70	Z70	X71	Y71	Z71	X72	Y72	Z72	X73	Y73	Z73	X74	Y74	Z74	X75	Y75	Z75	X76	Y76	Z76	X77	Y77	Z77	X78	Y78	Z78	X79	Y79	Z79	X80	Y80	Z80	X81	Y81	Z81	X82	Y82	Z82	X83	Y83	Z83	X84	Y84	Z84	X85	Y85	Z85	X86	Y86	Z86	

1	0	357.1467895507812	1044.708740234375	-185.9466094970703	385.1029968261719	1141.857788085938	-282.4482727050781	484.7413940429688	1074.585815429688	-282.9833984374999	360.3045654296875	904.9031982421875	-263.6225585937499	525.6009521484374	960.2096557617188	-293.1758728027343	469.3925170898438	761.6070556640625	-175.0829925537109	343.0470886230469	806.0216064453125	-209.9537811279296	337.2945251464844	810.7324829101562	-299.4322814941406	443.7101440429688	763.9911499023438	-371.0666198730468	410.777099609375	805.2787475585938	-381.9015808105468	424.1845397949218	814.3267211914062	-152.0768432617187	549.356201171875	503.8358154296876	-210.1964569091796	526.42041015625	540.5126342773438	-154.6248168945312	548.8380126953125	443.2180786132813	-172.8633728027343	509.3393249511719	458.0415039062501	-110.9092025756835	536.6146240234375	401.7506713867188	-163.2830963134765	581.5444946289062	423.3821716308594	-215.0556640624999	547.1898193359375	380.7214965820313	-167.9933319091796	537.29345703125	363.7329406738282	-263.5975646972655	588.1566162109375	365.9697265625001	-206.1845245361327	613.22216796875	300.5671691894532	-190.3717803955077	601.056884765625	247.1930389404297	-153.8028869628905	639.856689453125	211.6277770996094	-194.5564880371093	599.9847412109375	192.7983093261719	-124.3751068115233	656.7078247070312	75.89675903320317	-175.9672241210936	617.3692016601562	42.22647094726566	-218.1960144042968	763.7804565429688	104.5987167358399	-201.1315002441405	758.9591064453125	73.86533355712895	-161.9271087646483	351.1622314453125	546.7868041992188	-388.9152832031249	370.6205749511719	490.1204833984375	-358.4769592285156	312.1208496093751	457.7132263183594	-370.1066894531249	315.3262329101562	495.8605346679688	-418.5663757324218	283.6631469726563	399.1603698730469	-359.8832702636718	336.1890869140626	389.96826171875	-328.2204284667968	263.2690734863282	374.8016052246094	-359.1910705566406	276.6654357910157	369.7972106933594	-257.7072753906249	307.8363952636719	346.3661499023438	-321.9688110351562	264.7575683593751	251.0803833007813	-329.8010559082031	201.029769897461	220.6893157958984	-351.4448852539062	227.9438171386719	161.9954071044922	-316.0792236328124	163.3436737060547	178.3677520751953	-372.2535095214843	155.4334869384766	74.61478424072267	-319.8981323242187	111.5378723144532	76.48686218261719	-282.3659973144531	267.1979064941407	28.78930473327638	-285.2809448242187	236.3022766113282	9.01320075988771	-331.1676635742187	nan	nan	nan	nan	nan	nan	nan	nan	nan	nan	nan	nan	nan	nan	nan	nan	nan	nan	nan	nan	nan	nan	nan	nan	nan	nan	nan	nan	nan	nan	nan	nan	nan	nan	nan	nan	nan	nan	nan	nan	nan	nan	nan	nan	nan	nan	nan	nan	nan	nan	nan	nan	nan	nan	nan	nan	nan	nan	nan	nan	nan	nan	nan	nan	nan	nan	nan	nan	nan	nan	nan	nan	nan	nan	nan	nan	nan	nan	nan	nan	nan	nan	nan	nan	nan	nan	nan	nan	nan	nan	nan	nan	nan	nan	nan	nan	nan	nan	nan	nan	nan	nan	nan	nan	nan	nan	nan	nan	nan	nan	nan	nan	nan	nan	nan	nan	nan	nan	nan	nan	nan	nan	nan	
2	0.01	373.5387573242188	1040.071411132812	-184.5142059326171	400.5338439941406	1137.337280273438	-281.0111694335937	500.7440185546875	1071.180297851562	-281.8226623535155	377.258056640625	900.9811401367188	-262.6423950195312	542.2008056640624	957.2218017578125	-292.5173950195311	486.5400390625	757.6751098632812	-175.5460968017577	359.6963195800781	802.117431640625	-209.1221466064453	353.6904602050781	807.1858520507812	-298.5165100097656	459.48046875	761.119873046875	-371.5765380859374	426.2024841308594	802.5968627929688	-381.5318298339843	441.5568847656249	810.079345703125	-151.6539001464843	567.58154296875	502.3546447753907	-211.4543304443358	544.5961303710938	538.5267333984375	-155.5849456787108	567.57470703125	441.6817016601563	-174.0804748535155	527.7725830078125	455.3393859863282	-112.1878967285155	554.1425170898438	398.9906005859376	-164.4010620117186	598.9757690429688	421.7576293945313	-214.7935791015624	564.7642211914062	377.8219299316407	-169.0330963134764	557.0736083984375	361.9172973632813	-264.859161376953	606.7599487304688	364.3045654296876	-206.2192840576171	632.7557373046875	298.6126403808594	-190.8829193115233	620.3131103515625	244.3336944580078	-155.5774536132811	660.8699340820312	209.6421356201172	-196.1142272949218	618.6539916992188	189.3598937988282	-126.9086837768554	680.4367065429688	74.13969421386723	-179.178497314453	643.3847045898438	40.16576004028325	-222.5408782958983	787.74853515625	108.6669387817383	-202.2227783203124	783.9039306640625	76.20912933349614	-164.0674896240233	361.8463745117188	546.4215087890625	-390.0756835937499	380.7338256835938	489.1747436523438	-360.3319396972656	321.5218200683594	458.0030822753906	-371.2230224609374	324.8804931640625	496.4281921386719	-419.2095642089843	292.0993347167969	399.5198669433594	-360.7786254882812	345.3423461914063	389.0567016601562	-328.9993896484374	271.5533752441407	375.3683776855469	-359.7371520996093	286.0472412109376	369.7552795410156	-258.1536254882812	316.0199279785157	345.8611450195312	-322.4641418457031	269.4270324707032	250.1881408691407	-330.4377136230468	205.8464813232422	222.4089965820312	-352.0162353515624	230.8510742187501	162.7870330810547	-316.4893798828124	167.3578796386719	180.9014434814453	-372.9327087402343	156.3182525634766	77.26226043701173	-320.4619750976562	112.4713363647462	80.29430389404297	-283.6126098632812	267.5989685058594	28.89341545104982	-285.4737854003906	236.9922943115235	9.155382156372085	-331.4119873046874	nan	nan	nan	nan	nan	nan	nan	nan	nan	nan	nan	nan	nan	nan	nan	nan	nan	nan	nan	nan	nan	nan	nan	nan	nan	nan	nan	nan	nan	nan	nan	nan	nan	nan	nan	nan	nan	nan	nan	nan	nan	nan	nan	nan	nan	nan	nan	nan	nan	nan	nan	nan	nan	nan	nan	nan	nan	nan	nan	nan	nan	nan	nan	nan	nan	nan	nan	nan	nan	nan	nan	nan	nan	nan	nan	nan	nan	nan	nan	nan	nan	nan	nan	nan	nan	nan	nan	nan	nan	nan	nan	nan	nan	nan	nan	nan	nan	nan	nan	nan	nan	nan	nan	nan	nan	nan	nan	nan	nan	nan	nan	nan	nan	nan	nan	nan	nan	nan	nan	nan	nan	nan	nan	
3	0.02	390.1052856445312	1035.920166015625	-183.0264129638671	416.0335693359375	1133.271240234375	-279.5754699707031	516.8362426757811	1068.180786132812	-280.739044189453	394.2439880371094	897.5242309570312	-261.7528381347656	558.9163818359374	954.6002807617188	-291.8296508789061	503.5617980957031	754.3005981445312	-175.8851623535155	376.2721557617188	798.6901245117188	-208.4316253662109	370.114013671875	803.9954223632812	-297.7575683593749	475.4277038574219	758.5135498046875	-371.9652404785155	441.9498291015625	800.1524658203125	-381.2077026367187	458.7934570312499	806.37744140625	-151.2643890380859	586.0477905273438	501.3493652343751	-212.7679595947264	563.0699462890625	537.037109375	-156.6024627685546	586.6295166015625	440.6218566894532	-175.4082489013671	546.5856323242188	453.2504882812501	-113.5274963378905	572.3737182617188	396.8737487792969	-165.6849670410155	616.8714599609375	420.5774230957032	-215.0354461669921	582.9678344726562	375.5278625488282	-170.2823333740233	576.803955078125	360.5250854492188	-266.2619018554686	625.5699462890625	362.8629760742188	-206.792022705078	652.013671875	296.6193542480469	-191.9414825439452	639.16015625	241.7585754394532	-157.5328063964843	680.697998046875	207.5199890136719	-198.0014038085936	636.767578125	186.2994537353516	-129.4096527099608	701.4368286132812	72.07396697998051	-182.2247619628905	665.6640014648438	38.12274932861332	-226.3483886718749	808.9745483398438	109.9843292236329	-203.7598571777342	805.5795288085938	76.37548065185551	-166.3507232666014	373.7242736816406	545.801513671875	-391.2998962402343	392.2006225585938	488.0474243164062	-362.3717651367187	332.4023132324219	457.8640747070312	-372.6781616210937	335.7516479492188	496.7077331542969	-420.1485900878906	302.0998840332032	399.4293518066406	-362.1661376953124	355.9313964843751	387.7791748046875	-330.4355468749999	281.3468017578126	375.5146789550781	-360.8208312988281	296.8192443847657	369.1949768066406	-259.1486206054687	325.5989074707032	344.8834228515625	-323.6525268554687	275.3558349609376	249.4495697021485	-331.5140075683593	211.7296752929688	224.1995391845703	-353.0629272460937	234.8810424804688	163.6974639892578	-317.5926818847656	172.2725219726563	183.7245330810547	-374.0143127441406	157.7511596679688	80.25506591796876	-321.3159790039062	114.1657257080079	84.81372833251953	-285.0689697265625	268.0910644531251	28.8773822784424	-285.6617126464843	237.5425262451172	9.197131156921401	-331.5500488281249	nan	nan	nan	nan	nan	nan	nan	nan	nan	nan	nan	nan	nan	nan	nan	nan	nan	nan	nan	nan	nan	nan	nan	nan	nan	nan	nan	nan	nan	nan	nan	nan	nan	nan	nan	nan	nan	nan	nan	nan	nan	nan	nan	nan	nan	nan	nan	nan	nan	nan	nan	nan	nan	nan	nan	nan	nan	nan	nan	nan	nan	nan	nan	nan	nan	nan	nan	nan	nan	nan	nan	nan	nan	nan	nan	nan	nan	nan	nan	nan	nan	nan	nan	nan	nan	nan	nan	nan	nan	nan	nan	nan	nan	nan	nan	nan	nan	nan	nan	nan	nan	nan	nan	nan	nan	nan	nan	nan	nan	nan	nan	nan	nan	nan	nan	nan	nan	nan	nan	nan	nan	nan	nan	
4	0.03	406.8450317382812	1032.25634765625	-181.4842529296874	431.6018676757812	1129.66064453125	-278.1422119140624	533.0169067382811	1065.588134765625	-279.7333984374999	411.2604675292969	894.5333251953125	-260.9538269042968	575.7452392578124	952.3458862304688	-291.1140136718749	520.4566040039062	751.48388671875	-176.1009063720702	392.7736206054688	795.7405395507812	-207.881622314453	386.5632629394531	801.1624145507812	-297.1547546386718	491.5499877929688	756.173828125	-372.2330627441405	458.0146484375	797.947265625	-380.9293212890624	475.8933715820312	803.2221069335938	-150.9085235595702	604.7406616210938	500.8150329589844	-214.1396179199218	581.826904296875	536.0391235351562	-157.6789093017577	605.9806518554688	440.0321960449219	-176.8463897705077	565.761962890625	451.7714538574219	-114.9261093139647	591.283447265625	395.3953247070313	-167.1316528320311	635.206298828125	419.8351440429688	-215.7839050292968	601.7764892578125	373.8362121582032	-171.7379455566405	596.4505004882812	359.5509643554688	-267.8003845214843	644.5642700195312	361.6465759277344	-207.8986511230468	670.98046875	294.5988159179688	-193.5418853759764	657.5919189453125	239.474365234375	-159.6641235351561	699.3402709960938	205.2738494873047	-200.2127838134764	654.3427124023438	183.6346740722657	-131.8726654052733	719.7393188476562	69.73365783691411	-185.1024475097655	684.25390625	36.14577484130864	-229.6207885742186	827.4896850585938	108.6151428222657	-205.7476196289061	824.0274047851562	74.42572784423834	-168.7843475341795	386.798583984375	544.9273681640625	-392.5870056152343	405.0278015136719	486.7387084960938	-364.5914001464843	344.7730102539063	457.2937316894531	-374.4696044921874	347.9534301757812	496.6919250488281	-421.3822021484374	313.6786499023438	398.8854675292969	-364.0445251464843	367.9792175292969	386.1231689453125	-332.5346984863281	292.6647644042969	375.2381286621094	-362.4421997070312	309.0026245117188	368.10498046875	-260.7019348144531	336.5887451171876	343.4267272949219	-325.5363769531249	282.5661621093751	248.8685302734375	-333.0306701660156	218.7053527832032	226.0590515136719	-354.5909729003906	240.0460815429688	164.7189331054688	-319.3836059570312	178.1154785156251	186.8376007080078	-375.5057067871093	159.7861328125001	83.59680938720705	-322.4848022460937	116.6648559570313	90.05252075195314	-286.7422180175781	268.6788024902344	28.74785614013674	-285.8692626953124	237.9377746582032	9.143696784973159	-331.5785827636718	nan	nan	nan	nan	nan	nan	nan	nan	nan	nan	nan	nan	nan	nan	nan	nan	nan	nan	nan	nan	nan	nan	nan	nan	nan	nan	nan	nan	nan	nan	nan	nan	nan	nan	nan	nan	nan	nan	nan	nan	nan	nan	nan	nan	nan	nan	nan	nan	nan	nan	nan	nan	nan	nan	nan	nan	nan	nan	nan	nan	nan	nan	nan	nan	nan	nan	nan	nan	nan	nan	nan	nan	nan	nan	nan	nan	nan	nan	nan	nan	nan	nan	nan	nan	nan	nan	nan	nan	nan	nan	nan	nan	nan	nan	nan	nan	nan	nan	nan	nan	nan	nan	nan	nan	nan	nan	nan	nan	nan	nan	nan	nan	nan	nan	nan	nan	nan	nan	nan	nan	nan	nan	nan	
